<svg width="308" height="37" viewBox="0 0 308 37" fill="none" xmlns="http://www.w3.org/2000/svg">
<path d="M0.00124228 17.3988C-0.0293165 16.0523 0.50469 14.8771 1.51714 13.8916C4.50974 10.9795 7.50543 8.07105 10.4863 5.1476C10.8246 4.81571 11.0132 4.80582 11.3929 5.12871C13.9691 7.31853 13.9268 9.11949 11.5092 11.2523C9.75011 12.8042 8.12556 14.5005 6.4439 16.1351C5.57251 16.982 5.56634 17.5163 6.42692 18.3578C7.63322 19.5376 8.84106 20.7159 10.0603 21.8824C10.8635 22.6511 11.3166 22.6505 12.1266 21.8752C13.3869 20.6688 14.6315 19.4474 15.8822 18.2313C16.3097 17.8155 16.5292 17.382 16.1202 16.8141C15.7319 16.2751 15.4362 16.1276 14.8834 16.7092C13.7036 17.9507 12.4291 19.1071 11.2142 20.318C10.9126 20.6184 10.6801 20.7171 10.3949 20.3399C10.378 20.3174 10.356 20.2979 10.3344 20.279C8.10518 18.3584 7.82861 17.0177 10.239 14.8552C11.9852 13.2887 13.6255 11.6094 15.2924 9.96076C15.6581 9.59889 15.8816 9.47896 16.3141 9.91908C17.6358 11.2643 19.0282 12.5436 20.3642 13.8757C22.5095 16.0145 22.491 19.1958 20.3256 21.311C17.4204 24.1487 14.4932 26.9648 11.5966 29.8109C11.1981 30.2022 10.982 30.21 10.578 29.8127C7.56037 26.8452 4.51406 23.9046 1.48257 20.9503C0.494812 19.9876 -0.0194389 18.8271 0.00124228 17.3988Z" fill="white"/>
<path d="M44.596 13.6579C44.256 13.0979 43.786 12.6679 43.186 12.3679C42.606 12.0679 41.916 11.9179 41.116 11.9179C39.636 11.9179 38.466 12.3979 37.606 13.3579C36.766 14.3179 36.346 15.6079 36.346 17.2279C36.346 19.0479 36.796 20.4379 37.696 21.3979C38.616 22.3379 39.946 22.8079 41.686 22.8079C43.746 22.8079 45.216 21.8779 46.096 20.0179H40.186V15.7879H51.166V21.4879C50.706 22.6079 50.026 23.6579 49.126 24.6379C48.246 25.6179 47.126 26.4279 45.766 27.0679C44.406 27.6879 42.856 27.9979 41.116 27.9979C38.996 27.9979 37.116 27.5479 35.476 26.6479C33.856 25.7279 32.596 24.4579 31.696 22.8379C30.816 21.1979 30.376 19.3279 30.376 17.2279C30.376 15.1479 30.816 13.2979 31.696 11.6779C32.596 10.0379 33.856 8.76788 35.476 7.86788C37.096 6.94788 38.966 6.48788 41.086 6.48788C43.746 6.48788 45.946 7.12788 47.686 8.40789C49.426 9.68788 50.506 11.4379 50.926 13.6579H44.596ZM59.681 11.4079V14.8579H66.431V19.3279H59.681V23.1379H67.331V27.8479H53.801V6.69788H67.331V11.4079H59.681ZM80.9466 27.8479L76.7466 20.0479H76.1166V27.8479H70.2366V6.69788H79.5066C81.2066 6.69788 82.6466 6.99788 83.8266 7.59788C85.0066 8.17788 85.8966 8.98788 86.4966 10.0279C87.0966 11.0479 87.3966 12.1979 87.3966 13.4779C87.3966 14.9179 86.9966 16.1879 86.1966 17.2879C85.4166 18.3679 84.2666 19.1379 82.7466 19.5979L87.5166 27.8479H80.9466ZM76.1166 16.0279H79.0266C79.8266 16.0279 80.4266 15.8379 80.8266 15.4579C81.2266 15.0779 81.4266 14.5279 81.4266 13.8079C81.4266 13.1279 81.2166 12.5979 80.7966 12.2179C80.3966 11.8179 79.8066 11.6179 79.0266 11.6179H76.1166V16.0279ZM103.451 24.3979H95.9506L94.8106 27.8479H88.6306L96.3406 6.69788H103.121L110.801 27.8479H104.591L103.451 24.3979ZM101.981 19.8979L99.7006 13.0579L97.4506 19.8979H101.981ZM122.437 22.5979C123.317 22.5979 124.087 22.3879 124.747 21.9679C125.427 21.5479 125.957 20.9379 126.337 20.1379H132.667C132.207 22.2579 131.247 23.9979 129.787 25.3579C128.347 26.7179 126.547 27.5579 124.387 27.8779V28.9579C125.367 28.9579 126.257 29.2479 127.057 29.8279C127.877 30.4079 128.287 31.2979 128.287 32.4979C128.287 33.7179 127.857 34.6179 126.997 35.1979C126.137 35.7779 125.117 36.0679 123.937 36.0679H119.047V32.9779H123.247C123.907 32.9779 124.237 32.7679 124.237 32.3479C124.237 31.9279 123.907 31.7179 123.247 31.7179H120.907V27.9079C119.107 27.6879 117.537 27.0979 116.197 26.1379C114.857 25.1779 113.817 23.9379 113.077 22.4179C112.357 20.8779 111.997 19.1479 111.997 17.2279C111.997 15.1479 112.427 13.2979 113.287 11.6779C114.167 10.0379 115.407 8.76788 117.007 7.86788C118.607 6.94788 120.447 6.48788 122.527 6.48788C125.167 6.48788 127.387 7.19788 129.187 8.61788C130.987 10.0179 132.147 11.9279 132.667 14.3479H126.337C125.957 13.5479 125.427 12.9379 124.747 12.5179C124.087 12.0979 123.317 11.8879 122.437 11.8879C121.077 11.8879 119.987 12.3779 119.167 13.3579C118.367 14.3179 117.967 15.6079 117.967 17.2279C117.967 18.8679 118.367 20.1779 119.167 21.1579C119.987 22.1179 121.077 22.5979 122.437 22.5979ZM148.831 24.3979H141.331L140.191 27.8479H134.011L141.721 6.69788H148.501L156.181 27.8479H149.971L148.831 24.3979ZM147.361 19.8979L145.081 13.0579L142.831 19.8979H147.361ZM138.571 5.34788C139.131 2.08788 140.631 0.457884 143.071 0.457884C143.531 0.457884 143.941 0.527884 144.301 0.667885C144.681 0.807884 145.111 1.00788 145.591 1.26788C145.931 1.44788 146.221 1.58788 146.461 1.68788C146.701 1.78788 146.941 1.83788 147.181 1.83788C147.921 1.83788 148.361 1.37788 148.501 0.457884H151.471C151.191 2.15788 150.661 3.39788 149.881 4.17788C149.121 4.93788 148.151 5.31788 146.971 5.31788C146.531 5.31788 146.131 5.25788 145.771 5.13788C145.411 4.99788 144.971 4.79788 144.451 4.53788C144.111 4.35788 143.821 4.21788 143.581 4.11788C143.341 4.01788 143.101 3.96788 142.861 3.96788C142.141 3.96788 141.691 4.42788 141.511 5.34788H138.571ZM168.238 28.0579C166.258 28.0579 164.438 27.5979 162.778 26.6779C161.118 25.7379 159.798 24.4479 158.818 22.8079C157.858 21.1479 157.378 19.2779 157.378 17.1979C157.378 15.1179 157.858 13.2579 158.818 11.6179C159.798 9.95788 161.118 8.66788 162.778 7.74788C164.438 6.82788 166.258 6.36788 168.238 6.36788C170.238 6.36788 172.058 6.82788 173.698 7.74788C175.358 8.66788 176.668 9.95788 177.628 11.6179C178.588 13.2579 179.068 15.1179 179.068 17.1979C179.068 19.2779 178.588 21.1479 177.628 22.8079C176.668 24.4479 175.358 25.7379 173.698 26.6779C172.038 27.5979 170.218 28.0579 168.238 28.0579ZM168.238 22.5979C169.738 22.5979 170.918 22.1079 171.778 21.1279C172.658 20.1479 173.098 18.8379 173.098 17.1979C173.098 15.5179 172.658 14.1979 171.778 13.2379C170.918 12.2579 169.738 11.7679 168.238 11.7679C166.718 11.7679 165.528 12.2579 164.668 13.2379C163.808 14.1979 163.378 15.5179 163.378 17.1979C163.378 18.8579 163.808 20.1779 164.668 21.1579C165.528 22.1179 166.718 22.5979 168.238 22.5979ZM201.793 6.69788V11.3779H193.333V15.0979H199.573V19.5679H193.333V27.8479H187.453V6.69788H201.793ZM214.41 28.0579C212.43 28.0579 210.61 27.5979 208.95 26.6779C207.29 25.7379 205.97 24.4479 204.99 22.8079C204.03 21.1479 203.55 19.2779 203.55 17.1979C203.55 15.1179 204.03 13.2579 204.99 11.6179C205.97 9.95788 207.29 8.66788 208.95 7.74788C210.61 6.82788 212.43 6.36788 214.41 6.36788C216.41 6.36788 218.23 6.82788 219.87 7.74788C221.53 8.66788 222.84 9.95788 223.8 11.6179C224.76 13.2579 225.24 15.1179 225.24 17.1979C225.24 19.2779 224.76 21.1479 223.8 22.8079C222.84 24.4479 221.53 25.7379 219.87 26.6779C218.21 27.5979 216.39 28.0579 214.41 28.0579ZM214.41 22.5979C215.91 22.5979 217.09 22.1079 217.95 21.1279C218.83 20.1479 219.27 18.8379 219.27 17.1979C219.27 15.5179 218.83 14.1979 217.95 13.2379C217.09 12.2579 215.91 11.7679 214.41 11.7679C212.89 11.7679 211.7 12.2579 210.84 13.2379C209.98 14.1979 209.55 15.5179 209.55 17.1979C209.55 18.8579 209.98 20.1779 210.84 21.1579C211.7 22.1179 212.89 22.5979 214.41 22.5979ZM238.593 27.8479L234.393 20.0479H233.763V27.8479H227.883V6.69788H237.153C238.853 6.69788 240.293 6.99788 241.473 7.59788C242.653 8.17788 243.543 8.98788 244.143 10.0279C244.743 11.0479 245.043 12.1979 245.043 13.4779C245.043 14.9179 244.643 16.1879 243.843 17.2879C243.063 18.3679 241.913 19.1379 240.393 19.5979L245.163 27.8479H238.593ZM233.763 16.0279H236.673C237.473 16.0279 238.073 15.8379 238.473 15.4579C238.873 15.0779 239.073 14.5279 239.073 13.8079C239.073 13.1279 238.863 12.5979 238.443 12.2179C238.043 11.8179 237.453 11.6179 236.673 11.6179H233.763V16.0279ZM263.647 6.69788V11.3779H258.007V27.8479H252.127V11.3779H246.547V6.69788H263.647ZM271.703 11.4079V14.8579H278.453V19.3279H271.703V23.1379H279.353V27.8479H265.823V6.69788H279.353V11.4079H271.703Z" fill="white"/>
</svg>
