<svg width="330" height="330" viewBox="0 0 330 330" fill="none" xmlns="http://www.w3.org/2000/svg">
<path d="M165 325.875C253.849 325.875 325.875 253.849 325.875 165C325.875 76.1512 253.849 4.125 165 4.125C76.1512 4.125 4.125 76.1512 4.125 165C4.125 253.849 76.1512 325.875 165 325.875Z" fill="#1D1D1B"/>
<path d="M275.344 210.375C274.313 209.344 258.844 186.656 235.125 163.969C258.844 141.281 274.313 119.625 275.344 118.594L278.438 113.438L262.969 103.125L259.875 108.281C259.875 108.281 244.406 129.937 220.688 151.594C196.969 132 173.25 119.625 150.563 115.5C81.4688 103.125 41.25 158.812 40.2188 159.844L37.125 165H36.0938L39.1875 170.156C39.1875 170.156 72.1875 215.531 128.906 215.531C136.125 215.531 142.312 214.5 149.531 213.469C172.219 209.344 195.938 196.969 219.656 177.375C243.375 199.031 258.844 220.688 258.844 221.719L261.938 226.875L277.406 215.531L275.344 210.375ZM60.8438 165C72.1875 152.625 102.094 126.844 147.469 135.094C166.031 138.188 185.625 148.5 206.25 165C185.625 181.5 166.031 191.812 147.469 194.906C103.125 203.156 73.2188 177.375 60.8438 165Z" fill="white"/>
</svg>
